<mxfile host="app.diagrams.net" modified="2021-10-02T22:13:20.973Z" agent="5.0 (Windows NT 10.0; Win64; x64) AppleWebKit/537.36 (KHTML, like Gecko) Chrome/94.0.4606.71 Safari/537.36" etag="BBcO8QtuwkDZi8GTN7Ij" version="15.2.5" type="github">
  <diagram name="Page-1" id="4bd5d27a-524c-7e24-5d5f-89a86ee4fca1">
    <mxGraphModel dx="599" dy="335" grid="1" gridSize="10" guides="1" tooltips="1" connect="1" arrows="1" fold="1" page="1" pageScale="1" pageWidth="1100" pageHeight="850" background="none" math="0" shadow="0">
      <root>
        <mxCell id="0" />
        <mxCell id="1" parent="0" />
        <mxCell id="ZD0zLHsQKjvXVtaJzy_r-38" value="" style="verticalLabelPosition=bottom;html=1;verticalAlign=top;align=center;shape=mxgraph.floorplan.chair;strokeWidth=1;rotation=90;direction=north;" vertex="1" parent="1">
          <mxGeometry x="1695" y="710" width="52" height="41" as="geometry" />
        </mxCell>
        <mxCell id="4fd38086c27adbb9-1" value="" style="line;strokeWidth=4;html=1;perimeter=backbonePerimeter;points=[];outlineConnect=0;rounded=1;shadow=0;comic=0;fillColor=none;fontFamily=Verdana;fontSize=28;fontColor=#6881B3;align=center;strokeColor=#0066CC;" parent="1" vertex="1">
          <mxGeometry x="410" y="253" width="2430" height="10" as="geometry" />
        </mxCell>
        <mxCell id="4fd38086c27adbb9-3" value="" style="line;strokeWidth=4;direction=south;html=1;rounded=1;shadow=0;comic=0;labelBackgroundColor=#ffffff;fillColor=none;fontFamily=Verdana;fontSize=28;fontColor=#6881B3;strokeColor=#0066CC;" parent="1" vertex="1">
          <mxGeometry x="407" y="260" width="10" height="1171" as="geometry" />
        </mxCell>
        <mxCell id="4fd38086c27adbb9-4" value="" style="line;strokeWidth=4;direction=south;html=1;rounded=1;shadow=0;comic=0;labelBackgroundColor=#ffffff;fillColor=none;fontFamily=Verdana;fontSize=28;fontColor=#6881B3;strokeColor=#0066CC;" parent="1" vertex="1">
          <mxGeometry x="2833" y="260" width="10" height="1171" as="geometry" />
        </mxCell>
        <mxCell id="4fd38086c27adbb9-2" value="" style="line;strokeWidth=4;html=1;perimeter=backbonePerimeter;points=[];outlineConnect=0;rounded=1;shadow=0;comic=0;fillColor=none;fontFamily=Verdana;fontSize=28;fontColor=#6881B3;align=center;strokeColor=#0066CC;" parent="1" vertex="1">
          <mxGeometry x="410" y="1428" width="2430" height="10" as="geometry" />
        </mxCell>
        <mxCell id="ZD0zLHsQKjvXVtaJzy_r-16" value="" style="verticalLabelPosition=bottom;html=1;verticalAlign=top;align=center;strokeWidth=1;shape=mxgraph.floorplan.wall;fillColor=#000000;direction=south;rounded=0;shadow=0;comic=0;fontFamily=Verdana;fontSize=12;" vertex="1" parent="1">
          <mxGeometry x="1669" y="480" width="10" height="325" as="geometry" />
        </mxCell>
        <mxCell id="ZD0zLHsQKjvXVtaJzy_r-20" value="" style="verticalLabelPosition=bottom;html=1;verticalAlign=top;align=center;shape=mxgraph.floorplan.wallCorner;fillColor=#000000;direction=south;strokeWidth=1;rotation=90;" vertex="1" parent="1">
          <mxGeometry x="2004" y="504" width="87" height="62" as="geometry" />
        </mxCell>
        <mxCell id="ZD0zLHsQKjvXVtaJzy_r-21" value="" style="verticalLabelPosition=bottom;html=1;verticalAlign=top;align=center;shape=mxgraph.floorplan.doorRight;aspect=fixed;strokeWidth=1;" vertex="1" parent="1">
          <mxGeometry x="1990" y="488" width="71.53" height="76" as="geometry" />
        </mxCell>
        <mxCell id="ZD0zLHsQKjvXVtaJzy_r-22" value="" style="verticalLabelPosition=bottom;html=1;verticalAlign=top;align=center;shape=mxgraph.floorplan.wall;fillColor=#000000;strokeWidth=1;" vertex="1" parent="1">
          <mxGeometry x="1669" y="480" width="410" height="10" as="geometry" />
        </mxCell>
        <mxCell id="ZD0zLHsQKjvXVtaJzy_r-23" value="" style="verticalLabelPosition=bottom;html=1;verticalAlign=top;align=center;shape=mxgraph.floorplan.wall;fillColor=#000000;strokeWidth=1;" vertex="1" parent="1">
          <mxGeometry x="1942.88" y="795" width="83" height="10" as="geometry" />
        </mxCell>
        <mxCell id="ZD0zLHsQKjvXVtaJzy_r-24" value="" style="verticalLabelPosition=bottom;html=1;verticalAlign=top;align=center;strokeWidth=1;shape=mxgraph.floorplan.wall;fillColor=#000000;direction=south;rounded=0;shadow=0;comic=0;fontFamily=Verdana;fontSize=12;" vertex="1" parent="1">
          <mxGeometry x="2016" y="569" width="10" height="236" as="geometry" />
        </mxCell>
        <mxCell id="ZD0zLHsQKjvXVtaJzy_r-25" value="" style="verticalLabelPosition=bottom;html=1;verticalAlign=top;align=center;shape=mxgraph.floorplan.doorDouble;aspect=fixed;strokeWidth=1;rotation=90;" vertex="1" parent="1">
          <mxGeometry x="1925.09" y="658" width="118.59" height="63" as="geometry" />
        </mxCell>
        <mxCell id="ZD0zLHsQKjvXVtaJzy_r-28" value="" style="verticalLabelPosition=bottom;html=1;verticalAlign=top;align=center;shape=mxgraph.floorplan.window;strokeWidth=1;" vertex="1" parent="1">
          <mxGeometry x="1766.88" y="795" width="176" height="10" as="geometry" />
        </mxCell>
        <mxCell id="ZD0zLHsQKjvXVtaJzy_r-29" value="" style="verticalLabelPosition=bottom;html=1;verticalAlign=top;align=center;shape=mxgraph.floorplan.wall;fillColor=#000000;strokeWidth=1;" vertex="1" parent="1">
          <mxGeometry x="1680" y="795" width="86.88" height="10" as="geometry" />
        </mxCell>
        <mxCell id="ZD0zLHsQKjvXVtaJzy_r-30" value="" style="verticalLabelPosition=bottom;html=1;verticalAlign=top;align=center;shape=mxgraph.floorplan.bed_double;strokeWidth=1;" vertex="1" parent="1">
          <mxGeometry x="1774.88" y="490" width="160" height="200" as="geometry" />
        </mxCell>
        <mxCell id="ZD0zLHsQKjvXVtaJzy_r-32" value="" style="verticalLabelPosition=bottom;html=1;verticalAlign=top;align=center;shape=mxgraph.floorplan.table;strokeWidth=1;rotation=90;direction=north;" vertex="1" parent="1">
          <mxGeometry x="1716" y="701" width="55" height="116" as="geometry" />
        </mxCell>
        <mxCell id="ZD0zLHsQKjvXVtaJzy_r-35" value="" style="verticalLabelPosition=bottom;html=1;verticalAlign=top;align=center;shape=mxgraph.floorplan.table;strokeWidth=1;" vertex="1" parent="1">
          <mxGeometry x="1722" y="490" width="44" height="40" as="geometry" />
        </mxCell>
        <mxCell id="ZD0zLHsQKjvXVtaJzy_r-36" value="" style="verticalLabelPosition=bottom;html=1;verticalAlign=top;align=center;shape=mxgraph.floorplan.table;strokeWidth=1;" vertex="1" parent="1">
          <mxGeometry x="1942.88" y="490" width="41" height="30" as="geometry" />
        </mxCell>
        <mxCell id="ZD0zLHsQKjvXVtaJzy_r-34" value="" style="verticalLabelPosition=bottom;html=1;verticalAlign=top;align=center;shape=mxgraph.floorplan.plant;strokeWidth=1;rotation=-180;" vertex="1" parent="1">
          <mxGeometry x="1966.88" y="490" width="17" height="20" as="geometry" />
        </mxCell>
        <mxCell id="ZD0zLHsQKjvXVtaJzy_r-44" value="" style="verticalLabelPosition=bottom;html=1;verticalAlign=top;align=center;shape=mxgraph.floorplan.workstation;shadow=0;flipV=1;strokeWidth=1;direction=east;" vertex="1" parent="1">
          <mxGeometry x="1701" y="737" width="41" height="30" as="geometry" />
        </mxCell>
        <mxCell id="ZD0zLHsQKjvXVtaJzy_r-45" value="" style="verticalLabelPosition=bottom;html=1;verticalAlign=top;align=center;shape=mxgraph.floorplan.dresser;strokeWidth=1;rotation=-90;" vertex="1" parent="1">
          <mxGeometry x="1658.5" y="587.5" width="100" height="50" as="geometry" />
        </mxCell>
        <mxCell id="ZD0zLHsQKjvXVtaJzy_r-46" value="" style="verticalLabelPosition=bottom;html=1;verticalAlign=top;align=center;shape=mxgraph.floorplan.floor_lamp;strokeWidth=1;" vertex="1" parent="1">
          <mxGeometry x="1722" y="490" width="20" height="20" as="geometry" />
        </mxCell>
        <mxCell id="ZD0zLHsQKjvXVtaJzy_r-49" value="" style="verticalLabelPosition=bottom;html=1;verticalAlign=top;align=center;shape=mxgraph.floorplan.flat_tv;strokeWidth=1;rotation=-180;" vertex="1" parent="1">
          <mxGeometry x="1682" y="772" width="124" height="10" as="geometry" />
        </mxCell>
        <mxCell id="ZD0zLHsQKjvXVtaJzy_r-52" value="" style="verticalLabelPosition=bottom;html=1;verticalAlign=top;align=center;shape=mxgraph.floorplan.doorAccordion;dx=1;strokeWidth=1;" vertex="1" parent="1">
          <mxGeometry x="1766.88" y="790" width="177" height="5" as="geometry" />
        </mxCell>
      </root>
    </mxGraphModel>
  </diagram>
</mxfile>
